<svg xmlns="http://www.w3.org/2000/svg" viewbox="0 0 528 528"><path d="M206.667 33.017c-18.7 3.82-32.972 22.279-46.667 34.327-32.537 28.622-64.822 57.314-96 87.433C51.336 167.009 30.96 182.033 26.656 200c-4.228 17.651 9.377 43.163 14.471 60L80.61 389.333c4.669 15.36 7.628 42.601 18.611 54.564 11.235 12.236 43.773 13.831 59.445 17.284 42.051 9.265 84.265 17.623 126.667 25.112 18.411 3.252 42.776 10.425 61.333 6.133 11.329-2.62 19.58-13.427 26.831-21.76 16.299-18.736 31.877-38.108 47.592-57.333l56.54-70.667c8.327-10.697 21.016-22.729 24.885-36 4.8-16.463-6.635-42.449-10.681-58.667-10.608-42.507-20.496-84.957-34.033-126.667-4.909-15.129-7.228-36.372-17.925-48.668C428.76 59.889 399.8 59.369 384 56.822L272 40.536c-21.02-3.674-43.829-11.913-65.333-7.519m12 5.65C276.015 51.681 337.587 57.093 396 64v1.333c-36.8 1.188-73.992 6.398-110.667 9.81-12.709 1.182-33.837 7.08-45.876 2.143-10.524-4.316-20.265-27.965-20.791-38.62m8 46.667c-61.304 35.25-121.154 78.364-185.333 108 3.658-16.295 22.868-29.768 34.667-40.611 28.395-26.091 56.081-52.887 85.333-78.049 9.171-7.888 29.071-31.217 42.492-28.979 13.332 2.223 19.271 28.955 22.841 39.638m224 180C431.813 256.376 415.915 240.263 400 227l-85.333-72.696C291.7 134.481 260.979 114.652 244 89.333c44.543-9.758 90.66-12.737 136.027-16.38 15.96-1.282 39.432-6.545 52.588 5.553 11.452 10.531 10.195 36.375 11.335 50.828 3.58 45.401 6.717 90.428 6.717 136M225.333 96l-24.723 118.667L168 357.333c-15.688-10.941-27.94-26.944-40.363-41.333L69 246.667c-6.666-8.001-29.974-28.352-26.102-39.792 4.88-14.42 34.092-26.543 46.435-33.937 44.588-26.715 89.704-53.275 136-76.937m13.333 6.667c46.513 34.669 90.896 72.353 134.667 110.408C395.639 232.467 422.999 251.624 440 276l-262.667 86.667c-2.112-27.525 9.285-59.964 15.491-86.667l27.363-114.667c4.911-19.093 8.331-41.589 18.48-58.667M456 136c19.64 45.203 33.604 105.425 36 154.667-10.953-3.2-25.141-9.783-30.863-20.277-6.165-11.308-3.755-29.911-3.812-42.389-.136-29.471-6.661-62.996-1.325-92m-146.657 58.576c-42.224 8.399-18.512 92.588 21.321 85.031 41.981-7.964 18.113-92.873-21.321-85.031m4.076 12.556c17.759-.648 26.261 28.457 25.844 42.199-.231 7.576-3.891 16.928-12.677 17.417-17.585.98-26.337-27.796-25.961-41.412.213-7.749 3.56-17.867 12.795-18.204M218.667 252L232 248c-.341-16.908 22.645-26.673 26.22-6.599 3.603 20.239-16.537 48.721-22.22 67.932L290.667 292l-4-12-29.333 9.333c6.636-16.707 21.019-40.455 12.365-58.573-8.245-17.263-33.616-18.916-45.639-4.747-6.356 7.491-6.213 16.776-5.393 25.987M40 224c32.706 32.795 61.211 70.156 89.629 106.667 7.989 10.264 27.47 27.673 27.767 41.333.163 7.477-6.568 14.585-10.959 20-11.937 14.719-25.083 31.603-42.437 40-19.809-43.801-31.125-92.783-45.241-138.667C52.31 272.371 39.483 246.028 40 224m406.667 58.667c-1.796 18.971-12.619 36.576-21 53.333-17.043 34.076-36.165 67.12-55.393 100-6.619 11.319-13.552 22.493-20.96 33.315-2.969 4.336-6.58 10.616-12.292 11.508-10.636 1.663-25.955-12.643-34.355-18.028-29.832-19.121-58.977-39.339-88-59.663-7.649-5.357-32.343-17.748-29.469-29.424 1.525-6.204 9.565-9.1 14.807-11.187 15.656-6.233 32.013-10.972 47.996-16.299l198.667-63.556m-93.333 198.667c6.641-17.811 17.719-34.012 26.777-50.667L434.705 332c5.64-10.092 17.845-44.784 32.132-41.701 7.845 1.692 25.865 9.093 24.4 19.249-2.404 16.652-24.863 33.82-34.892 46.452-21.968 27.667-42.545 56.408-64.612 84-11.587 14.487-22.732 31.003-38.4 41.333m-36 2.667v1.333c-67.505-7.639-139.437-25.667-204-46.667 10.326-14.879 24.412-27.344 37.333-39.947 5.053-4.931 11.167-11.952 18.667-12.703 13.66-1.368 32.004 16.173 42.667 23.324 35.743 23.972 69.915 50.22 105.333 74.659z"/></svg>